/* XPM */
static char * expand_xpm[] = {
"18 18 12 1",
" 	c None",
".	c #A5B1C3",
"+	c #D5F3FF",
"@	c #8B96AB",
"#	c #ECFAFF",
"$	c #004579",
"%	c #EEFBFF",
"&	c #F1FBFF",
"*	c #F6FDFF",
"=	c #F9FDFF",
"-	c #FAFFFF",
";	c #FCFFFF",
"                  ",
"                  ",
"  ...........     ",
"  .+++++++++.     ",
"  .+@@@@@@@@@@@   ",
"  .+@+++++++++@   ",
"  .+@+###$####@   ",
"  .+@+%%%$+%%%@   ",
"  .+@+&&&$+&&&@   ",
"  .+@+$$$$$$$&@   ",
"  .+@+*++$++++@   ",
"  .+@+===$+===@   ",
"  ..@+---$+---@   ",
"    @+;;;;+;;;@   ",
"    @@@@@@@@@@@   ",
"                  ",
"                  ",
"                  "};
