/* XPM */
static char * resolution_16_xpm[] = {
"16 16 72 1",
" 	c None",
".	c #C4A103",
"+	c #8C8C8F",
"@	c #727275",
"#	c #E9D671",
"$	c #808083",
"%	c #8D8D90",
"&	c #CDCDCB",
"*	c #EEEEEC",
"=	c #C6C6C5",
"-	c #E8D56F",
";	c #E0C528",
">	c #2E3436",
",	c #C4C4C3",
"'	c #E8D46D",
")	c #DFC427",
"!	c #6D6F6B",
"~	c #C9C9C7",
"{	c #E7D36A",
"]	c #DFC326",
"^	c #C2A20B",
"/	c #D0D0CE",
"(	c #E6D367",
"_	c #DEC225",
":	c #C3A30D",
"<	c #61625F",
"[	c #555753",
"}	c #D6D6D4",
"|	c #E5D165",
"1	c #DDC124",
"2	c #DDDDDB",
"3	c #E4D063",
"4	c #DBBF22",
"5	c #E1C629",
"6	c #E1C72B",
"7	c #E6CD31",
"8	c #E9D135",
"9	c #E3E3E1",
"0	c #E2CE5F",
"a	c #C5A102",
"b	c #EAD770",
"c	c #ECDB78",
"d	c #C4A000",
"e	c #F0E286",
"f	c #F1E288",
"g	c #C5A204",
"h	c #EAEAE8",
"i	c #C4A002",
"j	c #C3A002",
"k	c #C4A003",
"l	c #C4A104",
"m	c #7E7E81",
"n	c #BBBBBB",
"o	c #9B9B9C",
"p	c #9D9D9E",
"q	c #A1A1A2",
"r	c #A4A4A5",
"s	c #A7A7A8",
"t	c #AAAAAB",
"u	c #CBCBCD",
"v	c #D7D7D7",
"w	c #CECECF",
"x	c #D1D1D3",
"y	c #D4D4D6",
"z	c #D8D8DA",
"A	c #DADADB",
"B	c #DFDFDF",
"C	c #FDFDFD",
"D	c #EBEBEC",
"E	c #DEDEE0",
"F	c #DDDDDF",
"G	c #FAFAFA",
"  ..            ",
"+@.#.$$$$$$$$$$%",
"$&.##.*********$",
"$=.-;#.>>>>>>>*$",
"$,.'))#.!!!!!>*$",
"$~.{]^)#.!!!!>*$",
"$/.(_::)#.!<[>*$",
"$}.|1:::)#.[[>*$",
"$2.34]5678#.[>*$",
"$9.0abcdefg#.>*$",
"$hd.i..j..kll.*$",
"$$m$$$$$$$$$$$$$",
"   $nopqrstu$   ",
"   $vuwxyzAB$   ",
"  $CDEFFFFFEG$  ",
"  $$$$$$$$$$$$  "};
