/* XPM */
static char * single_view_24_xpm[] = {
"24 24 116 2",
"  	c None",
". 	c #204A87",
"+ 	c #B5CAE4",
"@ 	c #B6CAE5",
"# 	c #B6C9E4",
"$ 	c #B5C9E5",
"% 	c #B5C9E4",
"& 	c #B4C8E3",
"* 	c #4A76AE",
"= 	c #B1C6E2",
"- 	c #4B76AE",
"; 	c #4B77AE",
"> 	c #4A77AE",
", 	c #B0C5E1",
"' 	c #4D78AF",
") 	c #4D79B0",
"! 	c #4D78B0",
"~ 	c #4C78AF",
"{ 	c #ADC3E0",
"] 	c #4F7AB1",
"^ 	c #507AB0",
"/ 	c #507AB1",
"( 	c #4F79B0",
"_ 	c #4F7AB0",
": 	c #4E79B0",
"< 	c #ACC2DF",
"[ 	c #527BB2",
"} 	c #527CB2",
"| 	c #527BB1",
"1 	c #517CB2",
"2 	c #527CB1",
"3 	c #517BB2",
"4 	c #517BB1",
"5 	c #517CB1",
"6 	c #AAC0DE",
"7 	c #547DB2",
"8 	c #547DB3",
"9 	c #537DB2",
"0 	c #A8BFDD",
"a 	c #577FB4",
"b 	c #567EB4",
"c 	c #567FB4",
"d 	c #567FB3",
"e 	c #567EB3",
"f 	c #A6BEDC",
"g 	c #5980B5",
"h 	c #5981B5",
"i 	c #5881B4",
"j 	c #5980B4",
"k 	c #5881B5",
"l 	c #5880B5",
"m 	c #A4BCDA",
"n 	c #5B82B5",
"o 	c #5B83B6",
"p 	c #5B82B6",
"q 	c #5A82B5",
"r 	c #A2BAD9",
"s 	c #5E84B6",
"t 	c #5E84B7",
"u 	c #5D84B7",
"v 	c #5D83B6",
"w 	c #5D84B6",
"x 	c #A1B8D9",
"y 	c #6086B7",
"z 	c #6085B8",
"A 	c #5F86B7",
"B 	c #6086B8",
"C 	c #5F85B8",
"D 	c #5F85B7",
"E 	c #6085B7",
"F 	c #9FB8D8",
"G 	c #6388B9",
"H 	c #6288B9",
"I 	c #6287B8",
"J 	c #6287B9",
"K 	c #6288B8",
"L 	c #6187B9",
"M 	c #9DB6D7",
"N 	c #658ABA",
"O 	c #6589BA",
"P 	c #6489BA",
"Q 	c #6589B9",
"R 	c #6489B9",
"S 	c #6488BA",
"T 	c #9BB4D5",
"U 	c #678BBA",
"V 	c #678ABB",
"W 	c #668ABB",
"X 	c #678BBB",
"Y 	c #678ABA",
"Z 	c #668BBB",
"` 	c #99B3D4",
" .	c #6A8DBC",
"..	c #6A8DBB",
"+.	c #698CBC",
"@.	c #698DBC",
"#.	c #698CBB",
"$.	c #97B2D3",
"%.	c #6C8EBD",
"&.	c #6B8EBD",
"*.	c #6B8EBC",
"=.	c #6C8EBC",
"-.	c #95B0D3",
";.	c #6E90BD",
">.	c #6E90BE",
",.	c #6E8FBD",
"'.	c #6D90BE",
").	c #6D90BD",
"!.	c #94AED1",
"~.	c #7192BF",
"{.	c #7092BF",
"].	c #7191BE",
"^.	c #7192BE",
"/.	c #7091BF",
"(.	c #7091BE",
"_.	c #93AED1",
"                                                ",
"  . . . . . . . . . . . . . . . . . . . . . .   ",
"  . + @ @ # + @ $ @ % $ % + @ $ @ % $ % % + .   ",
"  . & * * * * * * * * * * * * * * * * * * & .   ",
"  . = - * - * ; > > * * - * ; > > * * - * = .   ",
"  . , ' ' ) ! ~ ~ ' ' ' ' ! ~ ~ ' ' ' ' ' , .   ",
"  . { ] ^ / ( _ ( ] ( : _ ( _ ( ] ( : _ _ { .   ",
"  . < [ } | | 1 2 3 4 5 3 | 1 2 3 4 5 3 1 < .   ",
"  . 6 7 7 8 7 9 7 8 7 7 8 7 9 7 8 7 7 8 7 6 .   ",
"  . 0 a b c d d d d d b d d d d d d b d e 0 .   ",
"  . f g h i h j g k l k i h j g k l k i j f .   ",
"  . m n n o p p n q n n q p p n q n n q n m .   ",
"  . r s t s u u v t u v w u u v t u v w w r .   ",
"  . x y z y A B C D A E D A B C D A E D D x .   ",
"  . F G H I I J K J I J I I J K J I J I L F .   ",
"  . M N O P P Q R P R P R P Q R P R P R S M .   ",
"  . T U V W U V X X Y Z X U V X X Y Z X U T .   ",
"  . `  .....+.@.@.@.#.#.@.+.@.@.@.#.#.@.#.` .   ",
"  . $.%.%.%.&.%.&.&.*.%.=.&.%.&.&.*.%.=.*.$..   ",
"  . -.;.>.>.>.;.>.>.,.,.'.>.;.>.>.,.,.'.).-..   ",
"  . !.~.{.].{.{.^./.{./.(.{.{.^./.{./.(./.!..   ",
"  . _._._._._._._._._._._._._._._._._._._._..   ",
"  . . . . . . . . . . . . . . . . . . . . . .   ",
"                                                "};
