/* XPM */
static char * multi_view_squared_16_xpm[] = {
"16 16 47 1",
" 	c None",
".	c #204A87",
"+	c #B5C9E5",
"@	c #B4C8E5",
"#	c #B1C6E3",
"$	c #4A76AE",
"%	c #AEC4E1",
"&	c #AFC5E2",
"*	c #AFC4E1",
"=	c #ABC1DF",
"-	c #517BB1",
";	c #507BB1",
">	c #A9BFDE",
",	c #A9C1DF",
"'	c #577FB4",
")	c #567FB4",
"!	c #547DB3",
"~	c #537CB2",
"{	c #A8BFDD",
"]	c #A4BCDB",
"^	c #5D84B6",
"/	c #5D83B7",
"(	c #5D84B7",
"_	c #A2BADA",
":	c #A4BBDB",
"<	c #6489BA",
"[	c #6388B9",
"}	c #6287B8",
"|	c #6186B8",
"1	c #A3BBDA",
"2	c #9FB8D8",
"3	c #698CBC",
"4	c #6A8CBC",
"5	c #9CB5D6",
"6	c #9EB7D8",
"7	c #7091BF",
"8	c #6E90BF",
"9	c #6D8FBE",
"0	c #9DB6D7",
"a	c #98B3D4",
"b	c #98B2D4",
"c	c #96B2D4",
"d	c #96B1D3",
"e	c #98B2D3",
"f	c #97B2D4",
"g	c #97B2D3",
"h	c #96B1D4",
"............... ",
".++++++.+++++@. ",
".#$$$$%.&$$$$*. ",
".=---;>.,')!~{. ",
".]^^/(_.:<[}|1. ",
".234335.677890. ",
".abcddd.befgfh. ",
"............... ",
".++++++.+++++@. ",
".#$$$$%.&$$$$*. ",
".=---;>.,')!~{. ",
".]^^/(_.:<[}|1. ",
".234335.677890. ",
".abcddd.befgfh. ",
"............... ",
"                "};
