/* XPM */
static char * multi_view_sided_24_xpm[] = {
"24 24 130 2",
"  	c None",
". 	c #204A87",
"+ 	c #B5C9E5",
"@ 	c #B5CAE4",
"# 	c #B6CAE5",
"$ 	c #B6C9E4",
"% 	c #B5C9E4",
"& 	c #B0C5E2",
"* 	c #4A76AE",
"= 	c #AFC5E2",
"- 	c #B4C8E3",
"; 	c #A9C0DF",
"> 	c #517BB2",
", 	c #527CB1",
"' 	c #537CB2",
") 	c #547DB2",
"! 	c #A9C0DE",
"~ 	c #B1C6E2",
"{ 	c #4B76AE",
"] 	c #4B77AE",
"^ 	c #4A77AE",
"/ 	c #A3BBDA",
"( 	c #5F85B7",
"_ 	c #6085B7",
": 	c #A3BADA",
"< 	c #B0C5E1",
"[ 	c #4D78AF",
"} 	c #4D79B0",
"| 	c #4D78B0",
"1 	c #4C78AF",
"2 	c #9DB6D7",
"3 	c #6B8EBD",
"4 	c #6B8DBD",
"5 	c #6C8FBD",
"6 	c #6D8EBD",
"7 	c #9CB5D6",
"8 	c #ADC3E0",
"9 	c #4F7AB1",
"0 	c #507AB0",
"a 	c #507AB1",
"b 	c #4F79B0",
"c 	c #4F7AB0",
"d 	c #4E79B0",
"e 	c #96B1D3",
"f 	c #97B0D3",
"g 	c #96B0D3",
"h 	c #ACC2DF",
"i 	c #527BB2",
"j 	c #527CB2",
"k 	c #527BB1",
"l 	c #517CB2",
"m 	c #517BB1",
"n 	c #517CB1",
"o 	c #AAC0DE",
"p 	c #547DB3",
"q 	c #537DB2",
"r 	c #A8BFDD",
"s 	c #577FB4",
"t 	c #567EB4",
"u 	c #567FB4",
"v 	c #567FB3",
"w 	c #567EB3",
"x 	c #A6BEDC",
"y 	c #5980B5",
"z 	c #5981B5",
"A 	c #5881B4",
"B 	c #5980B4",
"C 	c #5881B5",
"D 	c #5880B5",
"E 	c #A4BCDA",
"F 	c #5B82B5",
"G 	c #5B83B6",
"H 	c #5B82B6",
"I 	c #5A82B5",
"J 	c #A2BAD9",
"K 	c #5E84B6",
"L 	c #5E84B7",
"M 	c #5D84B7",
"N 	c #5D83B6",
"O 	c #5D84B6",
"P 	c #A1B8D9",
"Q 	c #6086B7",
"R 	c #6085B8",
"S 	c #5F86B7",
"T 	c #6086B8",
"U 	c #5F85B8",
"V 	c #9FB8D8",
"W 	c #6388B9",
"X 	c #6288B9",
"Y 	c #6287B8",
"Z 	c #6287B9",
"` 	c #6288B8",
" .	c #6187B9",
"..	c #658ABA",
"+.	c #6589BA",
"@.	c #6489BA",
"#.	c #6589B9",
"$.	c #6489B9",
"%.	c #6488BA",
"&.	c #9BB4D5",
"*.	c #678BBA",
"=.	c #678ABB",
"-.	c #668ABB",
";.	c #678BBB",
">.	c #678ABA",
",.	c #668BBB",
"'.	c #99B3D4",
").	c #6A8DBC",
"!.	c #6A8DBB",
"~.	c #698CBC",
"{.	c #698DBC",
"].	c #698CBB",
"^.	c #97B2D3",
"/.	c #6C8EBD",
"(.	c #6B8EBC",
"_.	c #6C8EBC",
":.	c #95B0D3",
"<.	c #6E90BD",
"[.	c #6E90BE",
"}.	c #6E8FBD",
"|.	c #6D90BE",
"1.	c #6D90BD",
"2.	c #94AED1",
"3.	c #7192BF",
"4.	c #7092BF",
"5.	c #7191BE",
"6.	c #7192BE",
"7.	c #7091BF",
"8.	c #7091BE",
"9.	c #93AED1",
"                                                ",
"  . . . . . . . . . . . . . . . . . . . . . .   ",
"  . + + + + + + . @ # # $ @ # + # % + % % @ .   ",
"  . & * * * * = . - * * * * * * * * * * * - .   ",
"  . ; > , ' ) ! . ~ { * { * ] ^ ^ * * { * ~ .   ",
"  . / ( ( ( _ : . < [ [ } | 1 1 [ [ [ [ [ < .   ",
"  . 2 3 4 5 6 7 . 8 9 0 a b c b 9 b d c c 8 .   ",
"  . e f g g g e . h i j k k l , > m n > l h .   ",
"  . . . . . . . . o ) ) p ) q ) p ) ) p ) o .   ",
"  . + + + + + + . r s t u v v v v v t v w r .   ",
"  . & * * * * = . x y z A z B y C D C A B x .   ",
"  . ; > , ' ) ! . E F F G H H F I F F I F E .   ",
"  . / ( ( ( _ : . J K L K M M N L M N O O J .   ",
"  . 2 3 4 5 6 7 . P Q R Q S T U ( S _ ( ( P .   ",
"  . e f g g g e . V W X Y Y Z ` Z Y Z Y  .V .   ",
"  . . . . . . . . 2 ..+.@.@.#.$.@.$.@.$.%.2 .   ",
"  . + + + + + + . &.*.=.-.*.=.;.;.>.,.;.*.&..   ",
"  . & * * * * = . '.).!.!.~.{.{.{.].].{.].'..   ",
"  . ; > , ' ) ! . ^./././.3 /.3 3 (./._.(.^..   ",
"  . / ( ( ( _ : . :.<.[.[.[.<.[.[.}.}.|.1.:..   ",
"  . 2 3 4 5 6 7 . 2.3.4.5.4.4.6.7.4.7.8.7.2..   ",
"  . e f g g g e . 9.9.9.9.9.9.9.9.9.9.9.9.9..   ",
"  . . . . . . . . . . . . . . . . . . . . . .   ",
"                                                "};
