/* XPM */
static char * multi_view_squared_24_xpm[] = {
"24 24 107 2",
"  	c None",
". 	c #204A87",
"+ 	c #B5CAE4",
"@ 	c #B3C9E3",
"# 	c #4A76AE",
"$ 	c #B3C8E3",
"% 	c #AFC5E0",
"& 	c #4D77AF",
"* 	c #4C78AF",
"= 	c #4C77AF",
"- 	c #AEC4E0",
"; 	c #AAC1DE",
"> 	c #527CB2",
", 	c #537CB1",
"' 	c #537CB2",
") 	c #AAC1DD",
"! 	c #A6BEDC",
"~ 	c #5A80B4",
"{ 	c #5981B4",
"] 	c #5981B5",
"^ 	c #5A81B4",
"/ 	c #A5BDDC",
"( 	c #A2BBDA",
"_ 	c #5F85B7",
": 	c #6085B7",
"< 	c #6085B8",
"[ 	c #A1BAD9",
"} 	c #9EB7D7",
"| 	c #6789BA",
"1 	c #668ABA",
"2 	c #668ABB",
"3 	c #6689BA",
"4 	c #9DB6D6",
"5 	c #99B3D4",
"6 	c #6C8DBC",
"7 	c #6D8EBC",
"8 	c #6D8EBD",
"9 	c #6C8EBD",
"0 	c #6C8EBC",
"a 	c #95B0D2",
"b 	c #95AFD1",
"c 	c #4B77AE",
"d 	c #4B77AF",
"e 	c #B2C8E2",
"f 	c #B2C7E2",
"g 	c #B0C5E1",
"h 	c #4E79AF",
"i 	c #4E79B0",
"j 	c #4F79B0",
"k 	c #4F7AB0",
"l 	c #507AB0",
"m 	c #507BB0",
"n 	c #AEC5E1",
"o 	c #AFC4E0",
"p 	c #4D78AF",
"q 	c #4E78AF",
"r 	c #ACC2DE",
"s 	c #537DB1",
"t 	c #547DB2",
"u 	c #547DB3",
"v 	c #ACC1DE",
"w 	c #ABC2DE",
"x 	c #527BB1",
"y 	c #537BB2",
"z 	c #A8BFDD",
"A 	c #577FB3",
"B 	c #5880B4",
"C 	c #587FB4",
"D 	c #5880B3",
"E 	c #5980B4",
"F 	c #5A80B5",
"G 	c #A8BFDC",
"H 	c #A7BEDB",
"I 	c #577FB4",
"J 	c #587FB3",
"K 	c #A4BDDA",
"L 	c #5C82B5",
"M 	c #5D83B5",
"N 	c #5D82B6",
"O 	c #5E83B6",
"P 	c #5E84B6",
"Q 	c #5F84B6",
"R 	c #A4BBDA",
"S 	c #A3BBDA",
"T 	c #5C82B6",
"U 	c #5C83B6",
"V 	c #A2BAD8",
"W 	c #6286B7",
"X 	c #6185B8",
"Y 	c #6286B8",
"Z 	c #6287B8",
"` 	c #6387B8",
" .	c #A0B9D7",
"..	c #A0B9D8",
"+.	c #6185B7",
"@.	c #6186B7",
"#.	c #9EB6D6",
"$.	c #6589B9",
"%.	c #678ABA",
"&.	c #9CB5D6",
"*.	c #6588BA",
"=.	c #6689B9",
"-.	c #97B1D2",
";.	c #96B0D2",
">.	c #97B0D2",
",.	c #95B0D1",
"'.	c #96AFD1",
"                                                ",
"  . . . . . . . . . . . . . . . . . . . . .     ",
"  . + + + + + + + + + . + + + + + + + + + .     ",
"  . @ # # # # # # # $ . @ # # # # # # # $ .     ",
"  . % & * = * = * = - . % * = = * = * = - .     ",
"  . ; > , , ' ' ' ' ) . ; , , , ' ' ' ' ) .     ",
"  . ! ~ { ] ] ~ ~ ^ / . ! { ] ] ] ~ ~ ^ / .     ",
"  . ( _ _ : < < : : [ . ( _ : : < < : : [ .     ",
"  . } | 1 1 2 | 3 | 4 . } 1 1 1 2 | 3 | 4 .     ",
"  . 5 6 7 8 9 9 8 0 5 . 5 7 8 8 9 9 8 0 5 .     ",
"  . a a a a a a a a b . a a a a a a a a b .     ",
"  . . . . . . . . . . . . . . . . . . . . .     ",
"  . + + + + + + + + + . + + + + + + + + + .     ",
"  . @ # # # # # c d e . f # # # # # # # f .     ",
"  . g h i j k k l m n . o p p p q i h j o .     ",
"  . r ' , s t t t u v . w x > > y , ' ' w .     ",
"  . z A B C D E F ^ G . H I I I C J C J H .     ",
"  . K L M N O O P Q R . S L L L T U N M S .     ",
"  . V < W X Y Y Z `  .. ..X +.+.@.@.W Y ...     ",
"  . #.$.3 3 3 %.%.%.4 . &.*.*.*.=.3 =.=.&..     ",
"  . -.;.>.>.;.;.;.;.;.. b ,.'.'.b a '.'.b .     ",
"  . . . . . . . . . . . . . . . . . . . . .     ",
"                                                ",
"                                                "};
