/* XPM */
static char * multi_view_16_xpm[] = {
"16 16 79 1",
" 	c None",
".	c #204A87",
"+	c #B5C9E5",
"@	c #B0C6E2",
"#	c #4A76AE",
"$	c #AEC4E1",
"%	c #B4C8E4",
"&	c #B3C8E4",
"*	c #A6BEDC",
"=	c #5880B4",
"-	c #5B82B5",
";	c #A4BCDB",
">	c #B1C6E3",
",	c #4C77AF",
"'	c #4B77AF",
")	c #4B76AE",
"!	c #4B77AE",
"~	c #B2C6E3",
"{	c #9BB6D6",
"]	c #9AB5D5",
"^	c #99B5D5",
"/	c #4E79AF",
"(	c #4E79B0",
"_	c #4E7AB0",
":	c #4F79B0",
"<	c #AFC4E1",
"[	c #ACC2E0",
"}	c #517BB1",
"|	c #517CB1",
"1	c #517BB2",
"2	c #517CB2",
"3	c #A9C1DF",
"4	c #557EB2",
"5	c #547EB3",
"6	c #557DB3",
"7	c #557DB2",
"8	c #557EB3",
"9	c #AAC0DF",
"0	c #A7BEDD",
"a	c #587FB4",
"b	c #5780B4",
"c	c #5780B5",
"d	c #A8BFDD",
"e	c #A5BDDB",
"f	c #5A82B6",
"g	c #5B83B5",
"h	c #5A82B5",
"i	c #5B82B6",
"j	c #A5BDDC",
"k	c #A3BBDA",
"l	c #5D84B7",
"m	c #5D85B7",
"n	c #5E84B7",
"o	c #5E84B6",
"p	c #A3BBDB",
"q	c #A0B9D9",
"r	c #6187B8",
"s	c #6187B9",
"t	c #6086B8",
"u	c #6186B9",
"v	c #A1B9D9",
"w	c #9DB7D8",
"x	c #6489BA",
"y	c #6489B9",
"z	c #6488BA",
"A	c #6389BA",
"B	c #9EB7D8",
"C	c #678BBC",
"D	c #678BBB",
"E	c #668BBB",
"F	c #9CB6D7",
"G	c #99B4D5",
"H	c #6A8DBC",
"I	c #6A8EBC",
"J	c #99B3D5",
"K	c #96B2D3",
"L	c #97B1D3",
"M	c #96B1D3",
"N	c #97B2D3",
"................",
".++++.+++++++++.",
".@##$.%#######&.",
".*=-;.>,,')'!!~.",
".{{]^.$//(_:(_<.",
"......[}}}|121[.",
".++++.344567859.",
".@##$.0aab=cbbd.",
".*=-;.effghfiij.",
".{{]^.kllmmnlop.",
"......qrrstsurv.",
".++++.wxxyzxxAB.",
".@##$.{CCDDDEDF.",
".*=-;.GHHHHHHIJ.",
".{{]^.KLLLLMKNM.",
"................"};
