/* XPM */
static char * resolution_24_xpm[] = {
"24 24 118 2",
"  	c None",
". 	c #808083",
"+ 	c #7C7C7F",
"@ 	c #C4A103",
"# 	c #E7E7E8",
"$ 	c #F9F9FB",
"% 	c #F8F8FA",
"& 	c #F9F9FA",
"* 	c #F4F4F6",
"= 	c #E5E5E7",
"- 	c #E9D671",
"; 	c #2E3436",
"> 	c #DEDEDF",
", 	c #787A79",
"' 	c #787B79",
") 	c #787A78",
"! 	c #787B78",
"~ 	c #777A78",
"{ 	c #D6D6D7",
"] 	c #E8D56F",
"^ 	c #E0C528",
"/ 	c #777978",
"( 	c #787978",
"_ 	c #767877",
": 	c #CFCFD0",
"< 	c #E8D46D",
"[ 	c #DFC427",
"} 	c #767876",
"| 	c #767976",
"1 	c #CECECE",
"2 	c #E7D36A",
"3 	c #DFC326",
"4 	c #C3A30C",
"5 	c #757775",
"6 	c #747775",
"7 	c #747774",
"8 	c #757774",
"9 	c #70716F",
"0 	c #D2D2D3",
"a 	c #E6D367",
"b 	c #DEC225",
"c 	c #C3A30D",
"d 	c #747574",
"e 	c #757673",
"f 	c #747573",
"g 	c #747673",
"h 	c #737573",
"i 	c #6A6B68",
"j 	c #5D5F5C",
"k 	c #50534F",
"l 	c #D9D9DA",
"m 	c #E5D165",
"n 	c #DDC124",
"o 	c #737572",
"p 	c #6C6D6A",
"q 	c #676966",
"r 	c #626460",
"s 	c #5B5D5A",
"t 	c #535551",
"u 	c #525551",
"v 	c #E0E0E1",
"w 	c #555653",
"x 	c #555753",
"y 	c #555652",
"z 	c #F8F8F9",
"A 	c #E4D063",
"B 	c #DBBF22",
"C 	c #E1C629",
"D 	c #E1C72B",
"E 	c #E6CD31",
"F 	c #E9D135",
"G 	c #EEEEEF",
"H 	c #E2CE5F",
"I 	c #C5A102",
"J 	c #EAD770",
"K 	c #ECDB78",
"L 	c #C4A000",
"M 	c #F0E286",
"N 	c #C5A204",
"O 	c #868277",
"P 	c #F4F4F5",
"Q 	c #C4A002",
"R 	c #C3A002",
"S 	c #C4A003",
"T 	c #C4A104",
"U 	c #E6E7E9",
"V 	c #E8E9EC",
"W 	c #E9E9EC",
"X 	c #E6E8EB",
"Y 	c #E9EAEC",
"Z 	c #C9C9CB",
"` 	c #6F6F72",
" .	c #959596",
"..	c #99999A",
"+.	c #9D9D9E",
"@.	c #A1A1A2",
"#.	c #A5A5A6",
"$.	c #A7A7A9",
"%.	c #ACACAE",
"&.	c #AFAFB1",
"*.	c #868688",
"=.	c #8B8B8D",
"-.	c #8F8F92",
";.	c #9D9DA0",
">.	c #CFCFD1",
",.	c #D1D1D4",
"'.	c #D4D4D7",
").	c #D8D8DB",
"!.	c #DADADC",
"~.	c #DDDDE0",
"{.	c #DFDFE1",
"].	c #E2E2E5",
"^.	c #A7A7AB",
"/.	c #909093",
"(.	c #89898D",
"_.	c #E4E4E5",
":.	c #F3F3F4",
"<.	c #E2E2E3",
"                                                ",
"                                                ",
"  . + @ . . . . . . . . . . . . . . . . . . .   ",
"  . # @ @ $ % % % % % % % % % % % % % % & * .   ",
"  . = @ - @ ; ; ; ; ; ; ; ; ; ; ; ; ; ; ; $ .   ",
"  . > @ - - @ , ' ) ! , ) ) , ) , ) ' ~ ; & .   ",
"  . { @ ] ^ - @ ~ / ) ( _ / / ~ / / ~ / ; & .   ",
"  . : @ < [ [ - @ } } | } } | } } | } | ; & .   ",
"  . 1 @ 2 3 4 [ - @ 5 6 5 5 5 7 8 5 8 9 ; & .   ",
"  . 0 @ a b c c [ - @ d 5 e f g h i j k ; & .   ",
"  . l @ m n c o c [ - @ p q r s t u u t ; & .   ",
"  . v @ m n c c c c [ - @ w x y x x x x ; z .   ",
"  . # @ A B 3 C [ D E F - @ x x x x x x ; z .   ",
"  . G @ H I J K L M M N - - @ x x x x x ; z O   ",
"  . P L @ Q @ @ @ R @ @ S T T @ ; ; ; ; ; z .   ",
"  . z U V V V W W W W W W W W W W W W X Y z .   ",
"  . Z % % % % % % % % % % % % % % % % % % Z .   ",
"    . . . . . . . . . . . . . . . . . . . .     ",
"              `  ...+.@.#.$.%.&.*.              ",
"          =.-.;.>.,.'.).!.~.{.].^./.(.          ",
"        . _.:.:.:.:.:.:.:.:.:.:.:.:.<..         ",
"        . . . . . . . . . . . . . . . .         ",
"                                                ",
"                                                "};
