/* XPM */
static char * single_view_16_xpm[] = {
"16 16 73 1",
" 	c None",
".	c #204A87",
"+	c #B5C9E5",
"@	c #B4C8E4",
"#	c #4A76AE",
"$	c #B3C8E4",
"%	c #B1C6E3",
"&	c #4C77AF",
"*	c #4B77AF",
"=	c #4B76AE",
"-	c #4B77AE",
";	c #B2C6E3",
">	c #AEC4E1",
",	c #4E79AF",
"'	c #4E79B0",
")	c #4E7AB0",
"!	c #4F79B0",
"~	c #AFC4E1",
"{	c #ACC2E0",
"]	c #517BB1",
"^	c #517CB1",
"/	c #517BB2",
"(	c #517CB2",
"_	c #A9C1DF",
":	c #557EB2",
"<	c #547EB3",
"[	c #557DB3",
"}	c #557DB2",
"|	c #557EB3",
"1	c #AAC0DF",
"2	c #A7BEDD",
"3	c #587FB4",
"4	c #5780B4",
"5	c #5880B4",
"6	c #5780B5",
"7	c #A8BFDD",
"8	c #A5BDDB",
"9	c #5A82B6",
"0	c #5B83B5",
"a	c #5A82B5",
"b	c #5B82B6",
"c	c #A5BDDC",
"d	c #A3BBDA",
"e	c #5D84B7",
"f	c #5D85B7",
"g	c #5E84B7",
"h	c #5E84B6",
"i	c #A3BBDB",
"j	c #A0B9D9",
"k	c #6187B8",
"l	c #6187B9",
"m	c #6086B8",
"n	c #6186B9",
"o	c #A1B9D9",
"p	c #9DB7D8",
"q	c #6489BA",
"r	c #6489B9",
"s	c #6488BA",
"t	c #6389BA",
"u	c #9EB7D8",
"v	c #9BB6D6",
"w	c #678BBC",
"x	c #678BBB",
"y	c #668BBB",
"z	c #9CB6D7",
"A	c #99B4D5",
"B	c #6A8DBC",
"C	c #6A8EBC",
"D	c #99B3D5",
"E	c #96B2D3",
"F	c #97B1D3",
"G	c #96B1D3",
"H	c #97B2D3",
"................",
".++++++++++++++.",
".@############$.",
".%&&*=*&&*=*--;.",
".>,,')!,,')!')~.",
".{]]]^/]]]^/(/{.",
"._::<[}::<[}|<1.",
".23345633456447.",
".8990a9990a9bbc.",
".deeffgeeffgehi.",
".jkklmlkklmlnko.",
".pqqrsqqqrsqqtu.",
".vwwxxxwwxxxyxz.",
".ABBBBBBBBBBBCD.",
".EFFFFGFFFFGEHG.",
"................"};
